<svg width="24" height="24" viewBox="0 0 24 24" fill="none" xmlns="http://www.w3.org/2000/svg">
<path d="M12.1738 7.20449C12.9412 7.20449 13.5634 6.58235 13.5634 5.81489C13.5634 5.04744 12.9412 4.42529 12.1738 4.42529C11.4063 4.42529 10.7842 5.04744 10.7842 5.81489C10.7842 6.58235 11.4063 7.20449 12.1738 7.20449Z" fill="#1019A4"/>
<path d="M8.95092 7.95226C9.65442 7.95226 10.2247 7.38196 10.2247 6.67846C10.2247 5.97496 9.65442 5.40466 8.95092 5.40466C8.24742 5.40466 7.67712 5.97496 7.67712 6.67846C7.67712 7.38196 8.24742 7.95226 8.95092 7.95226Z" fill="#1019A4"/>
<path d="M6.59159 10.1956C7.23114 10.1956 7.74959 9.67718 7.74959 9.03764C7.74959 8.39809 7.23114 7.87964 6.59159 7.87964C5.95205 7.87964 5.43359 8.39809 5.43359 9.03764C5.43359 9.67718 5.95205 10.1956 6.59159 10.1956Z" fill="#1019A4" fill-opacity="0.8"/>
<path d="M5.72808 13.3027C6.30367 13.3027 6.77028 12.8361 6.77028 12.2605C6.77028 11.6849 6.30367 11.2183 5.72808 11.2183C5.15249 11.2183 4.68588 11.6849 4.68588 12.2605C4.68588 12.8361 5.15249 13.3027 5.72808 13.3027Z" fill="#1019A4" fill-opacity="0.8"/>
<path d="M6.5916 16.4677C7.13525 16.4677 7.57596 16.027 7.57596 15.4834C7.57596 14.9397 7.13525 14.499 6.5916 14.499C6.04795 14.499 5.60724 14.9397 5.60724 15.4834C5.60724 16.027 6.04795 16.4677 6.5916 16.4677Z" fill="#1019A4" fill-opacity="0.6"/>
<path d="M8.95092 18.7691C9.46256 18.7691 9.87732 18.3543 9.87732 17.8427C9.87732 17.331 9.46256 16.9163 8.95092 16.9163C8.43928 16.9163 8.02452 17.331 8.02452 17.8427C8.02452 18.3543 8.43928 18.7691 8.95092 18.7691Z" fill="#1019A4" fill-opacity="0.6"/>
<path d="M12.1738 19.5748C12.6535 19.5748 13.0423 19.1859 13.0423 18.7062C13.0423 18.2265 12.6535 17.8376 12.1738 17.8376C11.6941 17.8376 11.3052 18.2265 11.3052 18.7062C11.3052 19.1859 11.6941 19.5748 12.1738 19.5748Z" fill="#1019A4" fill-opacity="0.4"/>
<path d="M15.3965 18.6533C15.8442 18.6533 16.2071 18.2904 16.2071 17.8427C16.2071 17.395 15.8442 17.0321 15.3965 17.0321C14.9488 17.0321 14.5859 17.395 14.5859 17.8427C14.5859 18.2904 14.9488 18.6533 15.3965 18.6533Z" fill="#1019A4" fill-opacity="0.4"/>
<path d="M17.7558 16.2361C18.1715 16.2361 18.5086 15.8991 18.5086 15.4834C18.5086 15.0676 18.1715 14.7306 17.7558 14.7306C17.3401 14.7306 17.003 15.0676 17.003 15.4834C17.003 15.8991 17.3401 16.2361 17.7558 16.2361Z" fill="#1019A4" fill-opacity="0.2"/>
<path d="M18.6193 12.9553C19.003 12.9553 19.3141 12.6442 19.3141 12.2605C19.3141 11.8767 19.003 11.5657 18.6193 11.5657C18.2356 11.5657 17.9245 11.8767 17.9245 12.2605C17.9245 12.6442 18.2356 12.9553 18.6193 12.9553Z" fill="#1019A4" fill-opacity="0.2"/>
<path d="M17.7558 9.67468C18.1076 9.67468 18.3928 9.3895 18.3928 9.03772C18.3928 8.68593 18.1076 8.40076 17.7558 8.40076C17.404 8.40076 17.1188 8.68593 17.1188 9.03772C17.1188 9.3895 17.404 9.67468 17.7558 9.67468Z" fill="#1019A4" fill-opacity="0.1"/>
<path d="M15.3965 7.25749C15.7162 7.25749 15.9755 6.99826 15.9755 6.67849C15.9755 6.35871 15.7162 6.09949 15.3965 6.09949C15.0767 6.09949 14.8175 6.35871 14.8175 6.67849C14.8175 6.99826 15.0767 7.25749 15.3965 7.25749Z" fill="#1019A4" fill-opacity="0.1"/>
</svg>
